<?xml version="1.0" encoding="UTF-8" standalone="no"?>
<svg width="640" height="480" xmlns="http://www.w3.org/2000/svg" xmlns:svg="http://www.w3.org/2000/svg">
 <!-- Created with SVG-edit - http://svg-edit.googlecode.com/ -->
 <g>
  <title>Layer 1</title>
  <path stroke="#000000" id="svg_1" d="m521.583,376.35725l-111.30137,-103.25203c14.99429,-22.93685 23.78782,-49.77136 23.80344,-78.54747c-0.01562,-83.93756 -73.2846,-151.92219 -163.71891,-151.95117c-90.44994,0.02898 -163.75015,68.01362 -163.75015,151.93668c0,83.8796 73.30022,151.86424 163.75015,151.86424c31.03506,0 59.96154,-8.15758 84.68651,-22.06748l111.33261,103.26652l55.19773,-51.24929zm-352.50641,-181.81399c0.09371,-51.90132 45.34211,-93.86285 101.27394,-93.97877c55.90059,0.11592 101.18023,42.07745 101.27394,93.97877c-0.10933,51.87234 -45.37335,93.83387 -101.27394,93.94979c-55.93183,-0.11592 -101.18023,-42.07745 -101.27394,-93.94979z" stroke-width="5" fill="#007fff"/>
 </g>
</svg>